<svg width="25" height="24" viewBox="0 0 25 24" fill="none" xmlns="http://www.w3.org/2000/svg">
  <path d="M5.75 18.2663L11.2662 18.2475L23.3062 6.3225C23.7787 5.85 24.0387 5.2225 24.0387 4.555C24.0387 3.8875 23.7787 3.26 23.3062 2.7875L21.3237 0.805C20.3787 -0.14 18.73 -0.135 17.7925 0.80125L5.75 12.7288V18.2663ZM19.5562 2.5725L21.5425 4.55125L19.5462 6.52875L17.5637 4.5475L19.5562 2.5725ZM8.25 13.7713L15.7875 6.305L17.77 8.2875L10.2337 15.7513L8.25 15.7575V13.7713Z" fill="white" />
  <path d="M3.25 23.25H20.75C22.1287 23.25 23.25 22.1287 23.25 20.75V9.915L20.75 12.415V20.75H7.1975C7.165 20.75 7.13125 20.7625 7.09875 20.7625C7.0575 20.7625 7.01625 20.7512 6.97375 20.75H3.25V3.25H11.8088L14.3088 0.75H3.25C1.87125 0.75 0.75 1.87125 0.75 3.25V20.75C0.75 22.1287 1.87125 23.25 3.25 23.25Z" fill="white" />
</svg>
